<svg width="59" height="53" viewBox="0 0 59 53" fill="none" xmlns="http://www.w3.org/2000/svg">
<g id="flowbite:trash-bin-outline">
<path id="Vector" d="M12.2917 15.4583H46.7084M24.5834 22.0833V39.75M34.4167 22.0833V39.75M24.5834 6.625H34.4167C35.0687 6.625 35.694 6.85766 36.155 7.27181C36.616 7.68595 36.875 8.24765 36.875 8.83333V15.4583H22.125V8.83333C22.125 8.24765 22.384 7.68595 22.8451 7.27181C23.3061 6.85766 23.9314 6.625 24.5834 6.625ZM14.75 15.4583H44.25V44.1667C44.25 44.7524 43.991 45.3141 43.53 45.7282C43.069 46.1423 42.4437 46.375 41.7917 46.375H17.2084C16.5564 46.375 15.9311 46.1423 15.4701 45.7282C15.009 45.3141 14.75 44.7524 14.75 44.1667V15.4583Z" stroke="#105A41" stroke-width="2" stroke-linecap="round" stroke-linejoin="round"/>
</g>
</svg>
